<svg width="34" height="30" viewBox="0 0 34 30" fill="#956D84" xmlns="http://www.w3.org/2000/svg">
<path d="M17 29.2981C16.5302 29.2981 16.0772 29.1326 15.7243 28.832C14.3911 27.6987 13.1058 26.6337 11.9719 25.6943L11.9661 25.6894C8.64147 22.935 5.77054 20.5563 3.773 18.2131C1.54006 15.5935 0.5 13.1098 0.5 10.3965C0.5 7.76028 1.42979 5.32822 3.1179 3.54799C4.82616 1.7467 7.17013 0.754639 9.71879 0.754639C11.6237 0.754639 13.3682 1.34014 14.9037 2.49473C15.6787 3.07753 16.3811 3.7908 17 4.62278C17.6191 3.7908 18.3213 3.07753 19.0965 2.49473C20.632 1.34014 22.3765 0.754639 24.2814 0.754639C26.8298 0.754639 29.174 1.7467 30.8823 3.54799C32.5704 5.32822 33.4999 7.76028 33.4999 10.3965C33.4999 13.1098 32.4601 15.5935 30.2272 18.2128C28.2296 20.5563 25.359 22.9347 22.0349 25.6889C20.8989 26.6298 19.6116 27.6965 18.2754 28.8325C17.9227 29.1326 17.4695 29.2981 17 29.2981ZM9 21.5204C6.99768 21.5204 7.33816 17.679 6 19.0899C4.64196 20.522 2 14.7149 3 10.8261C3 13.1081 3.30522 14.7194 5.26121 17.0139C7.15175 19.2318 9.96377 21.5616 13.2196 24.2592L13.2257 24.2641C14.3639 25.2072 15.6543 26.2764 16.9972 27.418C18.3482 26.2742 19.6405 25.2033 20.781 24.2587C24.0367 21.5611 26.5 15.5 28 16.5C29.9557 14.2055 31 15.782 31 13.5C31 11.3372 33 12 32.4999 12.4211C31.162 11.0103 32.2293 16.7475 30.2272 16.7475C28.7604 16.7475 29 16.5 28 16.5C26.9403 17.297 24.4328 22.2738 24 22.9787C23.7774 23.3412 17.431 27.418 16.9972 27.418C16.5634 27.418 16.7226 28.2023 16.5 27.8398C17.1092 28.832 14.9018 24.0956 11.5604 25.3533C10.3713 24.4594 10.4666 21.5204 9 21.5204Z" />
</svg>
